<?xml version="1.0" encoding="UTF-8"?>
<svg width="48px" height="48px" viewBox="0 0 48 48" version="1.1" xmlns="http://www.w3.org/2000/svg" xmlns:xlink="http://www.w3.org/1999/xlink">
    <title>Brand / Small</title>
    <g id="Brand-/-Small" stroke="none" stroke-width="1" fill="none" fill-rule="evenodd">
        <g id="Group-7">
            <polygon id="Fill-1" fill="#003057" points="0.000133333333 0 0 48 48 48 48 19.9098947 38.7770667 19.9097618 38.7770667 0"></polygon>
            <g id="Group-6" transform="translate(4.869565, 4.869565)">
                <path d="M16.2053428,20.1009501 C17.5510536,19.8364119 18.903136,19.8414206 20.2455283,20.1495872 C21.9570687,20.5423744 23.042876,21.5923551 23.5678599,23.2336256 C23.856966,24.1375634 23.9805463,25.0701034 24.0297926,26.0092339 C24.1136838,27.6132027 24.1604081,29.2194124 24.0028465,30.8224586 C23.8989117,31.8794252 23.6846705,32.9091076 23.1379173,33.8444156 C22.8841198,34.278195 22.569395,34.6629419 22.191619,34.9972064 C22.1321518,35.0497977 22.0692334,35.0981712 22.0080406,35.1486535 C22.0219782,35.1684247 22.0360485,35.1884595 22.0499862,35.2083625 C22.2976777,35.1649977 23.8971861,34.8229565 24.4134091,34.7147423 C24.529025,34.6904897 24.6126508,34.6999799 24.6516761,34.8048989 C24.903748,35.4835771 25.4782437,36.4118993 26.0807473,36.986713 C26.1988852,37.0995405 26.1157904,37.2529648 25.9687153,37.2529648 C24.9799404,37.2529648 23.10752,37.254151 22.1188779,37.2467698 C20.8955526,37.2378069 19.6767405,37.2827533 18.457132,37.3922856 C17.4957013,37.4784879 16.5350671,37.3801593 15.5997861,37.1222114 C14.1963337,36.7349602 13.2645039,35.8502664 12.7818639,34.4969959 C12.4508121,33.5682783 12.315949,32.604368 12.2455972,31.6284632 C12.1197603,29.8828009 12.1238752,28.1350297 12.198342,26.3881812 C12.2444025,25.306303 12.3588238,24.2312787 12.6959816,23.1898654 C13.2508318,21.4753098 14.4319459,20.4495817 16.2053428,20.1009501 M7.8087866,20.1361428 C9.52152159,20.5435606 10.4781736,21.6756577 10.8459942,23.338281 C10.9945294,24.009578 11.0214755,24.6910243 11.0168296,25.3757657 C11.0157677,25.5425025 10.9516546,25.5865263 10.7938276,25.5858673 C9.76018682,25.581254 8.72641327,25.5799359 7.69277247,25.5869217 C7.51463635,25.5882398 7.45901859,25.5306398 7.4614079,25.3579716 C7.46977047,24.7361025 7.44680658,24.1164741 7.25101613,23.5160897 C7.07566754,22.9785776 6.75536764,22.5835497 6.162554,22.4965565 C5.51876847,22.4019185 4.94294546,22.5467753 4.52256015,23.0775652 C4.1273953,23.5767213 3.98058565,24.1740741 3.88992472,24.7819716 C3.61103948,26.6511378 3.66015302,28.5329574 3.70236411,30.4129318 C3.72161131,31.273373 3.76714088,32.1331551 3.94209126,32.9798883 C4.03394684,33.424476 4.15686342,33.8598371 4.40959902,34.2465611 C4.86370011,34.9411881 5.92030481,35.210076 6.65780427,34.8174206 C7.01062529,34.6295945 7.20840682,34.3162874 7.33623475,33.9553977 C7.57728929,33.275665 7.61419081,32.5675936 7.62414626,31.856227 C7.62879213,31.5195899 7.62972131,31.5189309 7.95798556,31.5187991 C8.94676049,31.5184037 9.93553541,31.5239396 10.9241776,31.5144494 C11.1385515,31.5124723 11.2225755,31.5557053 11.2120891,31.7908503 C11.1692143,32.7589785 11.1000572,33.7206481 10.7845359,34.6491021 C10.3218067,36.0108082 9.41878138,36.931881 7.99555078,37.2860485 C6.39113105,37.6850307 4.78445475,37.6493108 3.21600737,37.1133803 C1.89764081,36.6628613 1.05633922,35.7224128 0.592415425,34.437946 C0.238665233,33.4583506 0.118137963,32.4381584 0.0618565064,31.4082124 C0.014468582,30.5398627 -0.00995544631,29.6707222 0.00371669995,29.0032476 C0.00438039637,27.407978 0.0139376248,26.0151652 0.213444769,24.6321062 C0.313928407,23.9361611 0.482374558,23.2577465 0.772277155,22.6122838 C1.26832386,21.5082618 2.0834758,20.7262462 3.23963497,20.3372815 C4.73680135,19.8335121 6.27140022,19.7701126 7.8087866,20.1361428 M37.564421,20.5763808 C37.5654829,22.5907991 37.5648192,24.6050856 37.5648192,26.6193721 L37.5625626,26.6193721 C37.5625626,28.5361208 37.565186,30.4528696 37.561368,32.3696183 C37.5597751,33.1865629 37.4034082,33.9750371 37.0554985,34.7198828 C36.5281254,35.8489483 35.6602759,36.6408494 34.4873916,37.0564394 C32.5479379,37.7432897 30.584193,37.7409172 28.6584114,37.0118883 C27.0906277,36.4180943 26.2335302,35.2140302 25.9180089,33.6128293 C25.8215075,33.1238224 25.7893845,32.6287524 25.7896484,32.1303872 L25.7909774,28.2613016 L25.7911102,20.4737025 C25.7920393,20.1992787 25.8088972,20.1986197 26.1072951,20.1983561 C27.1142553,20.1978059 28.1212155,20.1978059 29.128043,20.1986197 C29.4164855,20.1987515 29.4178129,20.2000696 29.4179456,20.4934737 C29.4182111,24.2913831 29.4184766,28.0892924 29.4178129,31.8873336 C29.4178129,32.5019533 29.4504667,33.1107735 29.6815658,33.6928366 C29.9725303,34.4262151 30.4988416,34.8588082 31.2999232,34.9606957 C31.6441161,35.0044558 31.983265,34.9915387 32.3172371,34.9128494 C33.061108,34.7378087 33.5023334,34.2461657 33.7323706,33.5496934 C33.912896,33.0033501 33.9493993,32.4377629 33.9492666,31.8675625 C33.9483374,28.1316027 33.9488683,24.3957748 33.9488683,20.6599469 L33.9488683,20.6056421 C33.9496648,20.1982243 33.9678501,20.1982243 34.4169071,20.1982243 C35.343029,20.1982243 36.2688855,20.1973016 37.1950075,20.1987515 L37.2454485,20.1986197 C37.5972076,20.1966426 37.5642882,20.1746307 37.564421,20.5763808 M20.2234936,32.5499314 C20.1459739,33.0411789 20.0363312,33.5253089 19.7930201,33.9691057 C19.4950204,34.5128128 19.0344151,34.8052943 18.4106732,34.8499771 C18.1316552,34.8700119 17.8523718,34.8733071 17.5781324,34.8157071 C16.8164744,34.6559561 16.4469283,34.1181803 16.2309614,33.4369977 C15.9678722,32.6076632 15.9050865,31.7482764 15.8657957,30.8894169 C15.7986296,29.4263506 15.8006207,27.9618343 15.8663266,26.4990316 C15.905352,25.6312092 15.9832699,24.7672092 16.2257846,23.9229803 C16.6644879,22.3950645 17.9432982,22.2860595 18.9391083,22.6071432 C19.5398863,22.8009007 19.8204972,23.3075698 20.001819,23.8665666 C20.2586695,24.6591268 20.330747,25.4818709 20.3708342,26.306065 C20.4097268,27.1033703 20.439195,27.90173 20.4322925,28.7004851 C20.4091959,29.9861382 20.4244609,31.2741638 20.2234936,32.5499314" id="Fill-2" fill="#FFFFFF"></path>
                <path d="M21.3860641,0.00182900234 C21.5961904,-0.000237254005 21.6811435,0.0756840275 21.7475132,0.262323844 C22.5412941,2.49554307 23.3427739,4.72599432 24.1439882,6.95657739 C24.1672176,7.02129501 24.1721289,7.09800714 24.2718161,7.17129227 C24.5343744,6.48681446 24.7898976,5.82276686 25.0439605,5.15806023 C25.6702245,3.51797602 26.298214,1.87855085 26.9181065,0.236094096 C26.9810249,0.0689618307 27.0597393,0.00134443936 27.246238,0.00279432494 C28.0956367,0.0097801373 28.9449026,0.00793482838 29.7943013,0.00740759725 L30.4313171,0.00740759725 C30.702769,0.00767121281 30.7055565,0.0109664073 30.5921971,0.272341236 C29.6675353,2.40749547 28.7416788,4.54212247 27.8162205,6.67701309 C27.1959298,8.10844558 26.5768338,9.54053712 25.9533574,10.9707833 C25.8804835,11.1380474 25.8480951,11.3050479 25.8484933,11.487338 C25.85221,13.2692474 25.8511481,15.0511568 25.8506172,16.8329344 C25.8506172,17.1279202 25.8494225,17.1296337 25.5592544,17.1298973 C24.5424715,17.1305563 23.5258214,17.1239659 22.5091712,17.1349657 C22.2836471,17.1372785 22.2217906,17.0693975 22.2229853,16.8486195 C22.2310824,15.0487843 22.2269675,13.2490808 22.2285603,11.4493774 C22.2286931,11.2964804 22.2089149,11.1536007 22.1498459,11.0080849 C20.7072354,7.45744696 19.2683416,3.90522728 17.8301114,0.352743982 C17.6834345,-0.00972741419 17.6381704,0.00701217391 18.0661219,0.00714398169 C19.172902,0.00714398169 20.2796822,0.012943524 21.3860641,0.00182900234 M11.799633,-6.71903487e-06 C13.4643164,0.0136025629 15.1292652,0.00701217391 16.7940813,0.00714398169 L16.844655,0.00727578947 C17.1236729,0.00819844394 17.1246021,0.0245426087 17.1246021,0.319660229 C17.1248012,5.81788998 17.1248012,11.3159879 17.1246021,16.8143495 L17.1246021,16.8625911 C17.1236729,17.1292383 17.1060186,17.1298973 16.7962051,17.1300291 C15.8333144,17.1304245 14.8704236,17.1305563 13.9075328,17.1298973 C13.6156391,17.1297655 13.5985158,17.128711 13.5974539,16.8718177 L13.5973211,16.8237078 C13.5973211,16.1848355 13.5973211,15.5497856 13.5971884,14.9173719 L13.5971884,4.19401812 C13.4422816,4.41308265 13.406442,4.49770325 13.3468421,4.73245291 C12.5314247,7.94408128 11.7207859,11.1566323 10.9090851,14.3690515 C10.6952422,15.2153893 10.4760896,16.0605408 10.2735295,16.9096465 C10.2311856,17.0878506 10.1504801,17.1339833 9.97964468,17.1329289 C8.98078156,17.1271293 7.98178571,17.1255476 6.98305534,17.1341151 C6.80199896,17.1358286 6.73483288,17.0696611 6.69527657,16.9042424 C5.91317671,13.6205151 5.12629823,10.3377106 4.34008345,7.05477419 C4.11402845,6.11063506 3.88730976,5.16675954 3.65979462,4.22301584 C3.64373317,4.15671652 3.6191764,4.25201355 3.58054927,4.13022316 C3.52028564,4.32028998 3.53913461,4.45196595 3.53913461,4.58047854 C3.53820544,7.74742407 3.5380727,10.8198634 3.5380727,13.9433124 L3.53793996,16.8217307 C3.53701079,17.1298973 3.51962194,17.1301609 3.17131406,17.1301609 C2.20842329,17.1302927 1.24553252,17.1235705 0.282774497,17.1349728 C0.0544629283,17.1375422 3.98217852e-05,17.0625435 3.98217852e-05,16.8458515 C0.00548213243,11.3299595 0.00428747888,5.81393574 0.00455295744,0.297911945 C0.00455295744,0.00872567506 0.005747611,0.00740759725 0.3006943,0.00740759725 C2.04648136,0.00688036613 3.79240117,0.0116254462 5.53818823,0.00147624714 C5.7695528,-6.71903487e-06 5.86578878,0.0659302517 5.91729163,0.291585172 C6.38360473,2.33196961 6.8609352,4.36998151 7.33494718,6.40865245 C7.71803275,8.05690874 8.10072011,9.70542865 8.48500034,11.3535531 C8.50424753,11.4361966 8.53650318,11.5160721 8.56278556,11.5972657 C8.58176728,11.595025 8.60101447,11.5929161 8.61986345,11.5908071 C8.84074162,10.7012364 9.06241622,9.81166572 9.28223248,8.92169959 C9.99172395,6.05092613 10.7020119,3.18041629 11.4056628,0.308192952 C11.4604841,0.0845151487 11.5483575,-0.00195075515 11.799633,-6.71903487e-06" id="Fill-4" fill="#C1D600"></path>
            </g>
        </g>
    </g>
</svg>